<?xml version="1.0" standalone="no"?>
<!DOCTYPE svg PUBLIC "-//W3C//DTD SVG 20010904//EN"
 "http://www.w3.org/TR/2001/REC-SVG-20010904/DTD/svg10.dtd">
<svg version="1.0" xmlns="http://www.w3.org/2000/svg"
 width="450.000000pt" height="450.000000pt" viewBox="0 0 450.000000 450.000000"
 preserveAspectRatio="xMidYMid meet">
<metadata>
Created by potrace 1.11, written by Peter Selinger 2001-2013
</metadata>
<g transform="translate(0.000000,450.000000) scale(0.100000,-0.100000)"
fill="#000000" stroke="none">
<path d="M1987 4485 c-249 -30 -495 -103 -722 -215 -458 -224 -809 -574 -1036
-1035 -397 -807 -270 -1769 324 -2460 197 -229 429 -407 712 -546 810 -397
1770 -270 2460 324 509 437 797 1100 772 1772 -42 1121 -882 2030 -1995 2160
-152 18 -366 18 -515 0z m-465 -1407 l3 -73 58 -3 57 -3 0 76 0 75 105 0 104
0 3 -72 3 -73 58 -3 57 -3 0 76 0 75 105 0 105 0 0 -195 0 -195 -80 0 -80 0 0
-165 0 -165 63 0 62 1 138 162 138 162 -70 3 -71 3 0 194 0 195 455 0 455 0 0
-200 0 -200 -72 0 -73 -1 -147 -172 c-80 -95 -176 -207 -212 -249 l-66 -76
215 -251 215 -251 70 0 70 0 0 -200 0 -200 -455 0 -455 0 2 198 3 197 67 5 68
5 -138 162 -137 162 -57 0 -58 1 0 -165 0 -164 78 -3 77 -3 3 -197 2 -198
-440 0 -440 0 0 200 0 200 95 0 95 0 0 500 0 500 -95 0 -95 0 0 200 0 200 105
0 104 0 3 -72z"/>
</g>
</svg>
